/* XPM */
static char *_54c0648f87d4a0add08d338b39ecfad292v0kqXsWf9XK2E[] = {
/* columns rows colors chars-per-pixel */
"32 32 141 2 ",
"   c None",
".  c #F1911F",
"X  c #F1921F",
"o  c #F2951E",
"O  c #F3991D",
"+  c #F0981F",
"@  c #F29D1F",
"#  c #F49D1C",
"$  c #F5A01B",
"%  c #F6A41A",
"&  c #F6A51A",
"*  c #F7A71A",
"=  c #F7A819",
"-  c #F7A81A",
";  c #F8AB19",
":  c #F8AD19",
">  c #F9AE18",
",  c #F9AF18",
"<  c #EFB41E",
"1  c #EFB81F",
"2  c #FAB217",
"3  c #FAB317",
"4  c #FBB416",
"5  c #FBB516",
"6  c #FBB517",
"7  c #FBBA17",
"8  c #FDBB15",
"9  c #FCB816",
"0  c #FCB917",
"q  c #FDBE14",
"w  c #FDBE15",
"e  c #FDBF17",
"r  c #F0B61F",
"t  c #F0B71F",
"y  c #FAB218",
"u  c #FBB71D",
"i  c #F0BC1F",
"p  c #F2BC1F",
"a  c #F1BF1F",
"s  c #FCB919",
"d  c #ED8222",
"f  c #EE8621",
"g  c #EE8522",
"h  c #EF8921",
"j  c #EF8A20",
"k  c #EF8A21",
"l  c #F08D20",
"z  c #F08E20",
"x  c #EE9321",
"c  c #F0AA20",
"v  c #EFB622",
"b  c #FCBB21",
"n  c #FDBE21",
"m  c #FCBE2A",
"M  c #FEC114",
"N  c #F1C01F",
"B  c #F3C21F",
"V  c #F2C31F",
"C  c #F2C41F",
"Z  c #F2C61F",
"A  c #F2C71F",
"S  c #F9C71B",
"D  c #FEC21D",
"F  c #F3CA1F",
"G  c #F4CC1F",
"H  c #F4CD1F",
"J  c #FACC1B",
"K  c #F5D01F",
"L  c #F5D31F",
"P  c #F6D71F",
"I  c #F7DA1F",
"U  c #F7DD1F",
"Y  c #F8DF1F",
"T  c #FAE11D",
"R  c #F8E01F",
"E  c #F8E11F",
"W  c #F9E11F",
"Q  c #F9E21F",
"!  c #F9E31F",
"~  c #F9E41F",
"^  c #F9E51F",
"/  c #FAE81F",
"(  c #FFC82E",
")  c #F5D225",
"_  c #FBD120",
"`  c #F5D42E",
"'  c #FDC436",
"]  c #FDC537",
"[  c #FFCA36",
"{  c #FCD132",
"}  c #F9E520",
"|  c #FAE828",
" . c #FAE82A",
".. c #FAEA2E",
"X. c #FAEC39",
"o. c #EDBD49",
"O. c #F7DC45",
"+. c #FBEF49",
"@. c #FBED4B",
"#. c #D1CAB8",
"$. c #F2DFB1",
"%. c #D3D2CD",
"&. c #D5D6D7",
"*. c #D8D9DA",
"=. c #DBDCDD",
"-. c #F3E6C8",
";. c #DEDFE0",
":. c #E1E2E3",
">. c #E4E5E5",
",. c #E7E8E8",
"<. c #EAEBEB",
"1. c #EAEBEC",
"2. c #EAEBED",
"3. c #EBECEC",
"4. c #ECEDED",
"5. c #EDEDEE",
"6. c #EDEEEE",
"7. c #EFEFEF",
"8. c #EFF0F0",
"9. c #F0F0F1",
"0. c #F1F2F2",
"q. c #F2F2F3",
"w. c #F3F3F3",
"e. c #F4F4F5",
"r. c #F5F6F6",
"t. c #F6F6F7",
"y. c #F6F7F7",
"u. c gray97",
"i. c #F5F6F9",
"p. c #F7F7F8",
"a. c #F6F7F9",
"s. c #F8F8F8",
"d. c #F8F9F9",
"f. c #F9F9F9",
"g. c gray98",
"h. c #FAFBFB",
"j. c #FBFBFB",
"k. c gray99",
"l. c #FDFDFD",
"z. c #FEFEFE",
"x. c white",
/* pixels */
"                                                                ",
"                                                                ",
"                                                                ",
"                          ( [                                   ",
"                          M D D                                 ",
"                          M M 8 8                               ",
"                      ' ] n 8 8 8 { +.+.                        ",
"                    m b s 9 9 9 9 s _ ..X.X.                    ",
"                  u 6 6 6 6 6 6 5 5 9 T /  . .                  ",
"                y y 2 2 y y 2 2 2 5 J ^ ^ ^ } ^                 ",
"              > > > > > > > > > y S R ^ ^ R R R                 ",
"              ; ; ; ; ; - > = > >   R R R R R R }               ",
"            % ; = = % ;   % ; =       ) U U U U U               ",
"            % % % % %     % %           I I I I I               ",
"            $ $ $ $ $                   P P P P P               ",
"            # # # # # #           @.    L L L L L               ",
"            O O O O O O         ` )     L H L H L               ",
"              O o o o o o     G H H H H H H G H H               ",
"              z . . . . . @ V G F F F F F F F F                 ",
"                z z z k o a Z Z Z Z Z Z Z Z Z Z                 ",
"                  j j j c V V V V V V V V V V                   ",
"                    g g x i a a a a a a a V                     ",
"                        d x < a i a 1 a                         ",
"                              v < 1                             ",
"                                v <                             ",
"                      k.f.f.p.p.$.o.-.i.e.f.f.f.k.              ",
"            k.k.k.j.p.9.4.<.:.=.&.#.%.*.;.>.3.9.e.f.j.k.k.      ",
"                k.k.f.f.e.e.8.4.3.2.3.4.8.w.e.f.f.j.k.          ",
"                                                                ",
"                                                                ",
"                                                                ",
"                                                                "
};
