/* XPM */
static char *_f9194c433be4ab2f2ac7ffbb42462b8TSz0mdOqnkSX1D37[] = {
/* columns rows colors chars-per-pixel */
"32 22 18 1 ",
"  c None",
". c #1E7BC1",
"X c #1F7BC1",
"o c #1F7CC1",
"O c #207CC1",
"+ c #257EC3",
"@ c #297FC3",
"# c #2D81C4",
"$ c #2E81C4",
"% c #3383C5",
"& c #3785C6",
"* c #3F88C8",
"= c #4188C8",
"- c #4389C9",
"; c #4489C9",
": c #448AC9",
"> c #458AC9",
", c #468AC9",
/* pixels */
"                                ",
"  >>>>&O......................  ",
"  >>>>>%O.....................  ",
"  >>>>>:#.....................  ",
"                                ",
"                                ",
"                                ",
"                                ",
"                                ",
"                                ",
"  >>>>>>>>>>>>:#..............  ",
"  >>>>>>>>>>>>>:#.............  ",
"                                ",
"                                ",
"                                ",
"                                ",
"                                ",
"                                ",
"  >>>>>>>>>>>>>>>>>>>>:#......  ",
"  >>>>>>>>>>>>>>>>>>>>>:@.....  ",
"  >>>>>>>>>>>>>>>>>>>>>>:+....  ",
"                                "
};
