/* XPM */
static char *_cdea3afbc5847e79101543290a8d36eymJ3yQmwrXJOomUN[] = {
/* columns rows colors chars-per-pixel */
"16 16 59 1 ",
"  c None",
". c #26371E",
"X c #232622",
"o c #232124",
"O c #242224",
"+ c #242325",
"@ c #252525",
"# c #252625",
"$ c #252426",
"% c #252526",
"& c #262526",
"* c gray15",
"= c #252923",
"- c #252A23",
"; c #272A24",
": c #262C24",
"> c #273322",
", c #373737",
"< c gray22",
"1 c #393939",
"2 c #3A3A3A",
"3 c gray23",
"4 c #3C3C3C",
"5 c gray24",
"6 c #3E3E3E",
"7 c #265817",
"8 c #276515",
"9 c #2F6E16",
"0 c #2C6018",
"q c #336E19",
"w c #3D5825",
"e c #3D6122",
"r c #3E6123",
"t c #3F6223",
"y c #416324",
"u c #416424",
"i c gray25",
"p c gray26",
"a c #4C4C4C",
"s c gray30",
"d c gray35",
"f c #368017",
"g c #368117",
"h c #468B1D",
"j c #468C1D",
"k c #42B314",
"l c #4CBB17",
"z c #53BA1A",
"x c #4ACF13",
"c c #54D717",
"v c #5DD91A",
"b c #66D71F",
"n c #60E01B",
"m c #6AEA1E",
"M c #6BEC1E",
"N c #6DDC21",
"B c #6EDD22",
"V c #75E324",
"C c #75F521",
/* pixels */
"                ",
" daaaaaaaaaaaad ",
" i**@@**+**+*&i ",
" i****@ww***&;i ",
" i***+uVVt+*&*i ",
" 6***tBCCNt+&&i ",
" 6**tbmMmMbt**6 ",
" 6*;hzvvnvzh;*6 ",
" 2*XX.lccl.X@*2 ",
" 2***>kxxk>***2 ",
" 2***;9990;***2 ",
" <***:qqgq:***2 ",
" ,***;7887;***, ",
" ,****oooo****, ",
" 62<2,,2,,2,,26 ",
"                "
};
